<?xml version="1.0" encoding="utf-8" standalone="yes"?>
<!DOCTYPE svg PUBLIC "-//W3C//DTD SVG 1.1//EN" "http://www.w3.org/Graphics/SVG/1.1/DTD/svg11.dtd">
<svg width="876" height="588" viewBox="0 0 876 588" style="fill:none;stroke:none;fill-rule:evenodd;clip-rule:evenodd;stroke-linecap:round;stroke-linejoin:round;stroke-miterlimit:1.5;" version="1.1" xmlns="http://www.w3.org/2000/svg" xmlns:xlink="http://www.w3.org/1999/xlink"><style class="text-font-style fontImports" data-font-family="Roboto">@import url('https://fonts.googleapis.com/css2?family=Roboto:wght@400;700&amp;display=block');</style><rect id="" x="0" y="0" width="876" height="588" style="fill: #2c2c2c;"></rect><g id="items" style="isolation: isolate"><g id="blend" style="mix-blend-mode: normal"><g id="g-root-tf_18kph60fbj01t-fill" data-item-order="-772632"><g id="tf_18kph60fbj01t-fill" stroke="none" fill="#2c2c2c"><g><path d="M 0 0L 876 0L 876 588L 0 588Z"></path></g></g></g><g id="g-root-sy_1_cu_v5h5igfla617-fill" data-item-order="-91177" transform="translate(266, 168)"></g><g id="g-root-sy_2_cu_qung2wflbjlw-fill" data-item-order="-91173" transform="translate(314, 210)"></g><g id="g-root-sy_3_cu_1cy046gflcwlp-fill" data-item-order="-91169" transform="translate(362, 252)"></g><g id="g-root-sy_4_cu_zof12gflcx6u-fill" data-item-order="-91165" transform="translate(410, 294)"></g><g id="g-root-sy_5_cu_1hgxzqgflcwzr-fill" data-item-order="-91161" transform="translate(458, 336)"></g><g id="g-root-sy_6_cu_8cwfcflcwzs-fill" data-item-order="-91157" transform="translate(506, 378)"></g><g id="g-root-tx_filtrand_zjf8dkfleb62-fill" data-item-order="0" transform="translate(50, 182)"><g id="tx_filtrand_zjf8dkfleb62-fill" stroke="none" fill="#f4f4f4"><g><text style="font: 15px Roboto, sans-serif; white-space: pre;" font-size="15px" font-family="Roboto, sans-serif"><tspan x="14.08" y="30.5" dominant-baseline="ideographic">Filtrando datos por </tspan><tspan x="36.32" y="48.5" dominant-baseline="ideographic">fecha, satélite y </tspan><tspan x="81.84" y="66.5" dominant-baseline="ideographic">polígono</tspan></text></g></g></g><g id="g-root-tx_seleccio_141qmugflh5hf-fill" data-item-order="0" transform="translate(662, 182)"><g id="tx_seleccio_141qmugflh5hf-fill" stroke="none" fill="#f4f4f4"><g><text style="font: 15px Roboto, sans-serif; white-space: pre;" font-size="15px" font-family="Roboto, sans-serif"><tspan x="12" y="30.5" dominant-baseline="ideographic">Seleccionando </tspan><tspan x="12" y="48.5" dominant-baseline="ideographic">imágenes basadas en </tspan><tspan x="12" y="66.5" dominant-baseline="ideographic">filtros</tspan></text></g></g></g><g id="g-root-tx_filtrado_hydyqwflij9c-fill" data-item-order="0" transform="translate(26, 146)"><g id="tx_filtrado_hydyqwflij9c-fill" stroke="none" fill="#1ac3fb"><g><text style="font: bold 20px Roboto, sans-serif; white-space: pre;" font-weight="bold" font-size="20px" font-family="Roboto, sans-serif"><tspan x="11.64" y="33.5" dominant-baseline="ideographic">Filtrado de Datos</tspan></text></g></g></g><g id="g-root-tx_exportac_m8l73cfljzm2-fill" data-item-order="0" transform="translate(38, 266)"><g id="tx_exportac_m8l73cfljzm2-fill" stroke="none" fill="#a6da37"><g><text style="font: bold 20px Roboto, sans-serif; white-space: pre;" font-weight="bold" font-size="20px" font-family="Roboto, sans-serif"><tspan x="17.51" y="33.5" dominant-baseline="ideographic">Exportación de </tspan><tspan x="63.61" y="57.5" dominant-baseline="ideographic">Imágenes</tspan></text></g></g></g><g id="g-root-ic_down_1lvimugfledxr-fill" data-item-order="0" transform="translate(194, 266)"></g><g id="g-root-tx_validand_dkfvvsflh4w7-fill" data-item-order="0" transform="translate(662, 470)"><g id="tx_validand_dkfvvsflh4w7-fill" stroke="none" fill="#f4f4f4"><g><text style="font: 15px Roboto, sans-serif; white-space: pre;" font-size="15px" font-family="Roboto, sans-serif"><tspan x="12" y="30.5" dominant-baseline="ideographic">Validando y ajustando </tspan><tspan x="12" y="48.5" dominant-baseline="ideographic">parámetros a través de </tspan><tspan x="12" y="66.5" dominant-baseline="ideographic">API</tspan></text></g></g></g><g id="g-root-tx_procesam_1cwr608fljymb-fill" data-item-order="0" transform="translate(662, 266)"><g id="tx_procesam_1cwr608fljymb-fill" stroke="none" fill="#ffe711"><g><text style="font: bold 20px Roboto, sans-serif; white-space: pre;" font-weight="bold" font-size="20px" font-family="Roboto, sans-serif"><tspan x="12" y="33.5" dominant-baseline="ideographic">Procesamiento de </tspan><tspan x="12" y="57.5" dominant-baseline="ideographic">Modelos</tspan></text></g></g></g><g id="g-root-tx_seleccin_v7e0fljxfl-fill" data-item-order="0" transform="translate(662, 122)"><g id="tx_seleccin_v7e0fljxfl-fill" stroke="none" fill="#43dd93"><g><text style="font: bold 20px Roboto, sans-serif; white-space: pre;" font-weight="bold" font-size="20px" font-family="Roboto, sans-serif"><tspan x="12" y="33.5" dominant-baseline="ideographic">Selección de </tspan><tspan x="12" y="57.5" dominant-baseline="ideographic">Imágenes</tspan></text></g></g></g><g id="g-root-tx_exportan_1qa33mwflh4i4-fill" data-item-order="0" transform="translate(14, 326)"><g id="tx_exportan_1qa33mwflh4i4-fill" stroke="none" fill="#f4f4f4"><g><text style="font: 15px Roboto, sans-serif; white-space: pre;" font-size="15px" font-family="Roboto, sans-serif"><tspan x="18.32" y="27.5" dominant-baseline="ideographic">Exportando imágenes a </tspan><tspan x="158.66" y="45.5" dominant-baseline="ideographic">S3</tspan></text></g></g></g><g id="g-root-ic_pict_zmjs4ofla3gj-fill" data-item-order="0" transform="translate(602, 122)"></g><g id="g-root-tx_procesan_1hgbincflh4b1-fill" data-item-order="0" transform="translate(662, 326)"><g id="tx_procesan_1hgbincflh4b1-fill" stroke="none" fill="#f4f4f4"><g><text style="font: 15px Roboto, sans-serif; white-space: pre;" font-size="15px" font-family="Roboto, sans-serif"><tspan x="12" y="30.5" dominant-baseline="ideographic">Procesando imágenes </tspan><tspan x="12" y="48.5" dominant-baseline="ideographic">con modelos de </tspan><tspan x="12" y="66.5" dominant-baseline="ideographic">biomasa</tspan></text></g></g></g><g id="g-root-ic_filt_1qdu1bcflilmw-fill" data-item-order="0" transform="translate(194, 122)"></g><g id="g-root-tx_almacena_4l2148fljz7w-fill" data-item-order="0" transform="translate(26, 410)"><g id="tx_almacena_4l2148fljz7w-fill" stroke="none" fill="#f79438"><g><text style="font: bold 20px Roboto, sans-serif; white-space: pre;" font-weight="bold" font-size="20px" font-family="Roboto, sans-serif"><tspan x="11.68" y="33.5" dominant-baseline="ideographic">Almacenamiento </tspan><tspan x="85.2" y="57.5" dominant-baseline="ideographic">de Datos</tspan></text></g></g></g><g id="g-root-ic_refr_metxygfllekm-fill" data-item-order="0" transform="translate(194, 410)"></g><g id="g-root-ic_api_8wiasoflmt4x-fill" data-item-order="0" transform="translate(602, 410)"></g><g id="g-root-tx_validaci_mdkzs8fljz0t-fill" data-item-order="0" transform="translate(662, 434)"><g id="tx_validaci_mdkzs8fljz0t-fill" stroke="none" fill="#fb6762"><g><text style="font: bold 20px Roboto, sans-serif; white-space: pre;" font-weight="bold" font-size="20px" font-family="Roboto, sans-serif"><tspan x="12" y="33.5" dominant-baseline="ideographic">Validación de API</tspan></text></g></g></g><g id="g-root-tx_almacena_1lxdyy0flh5ou-fill" data-item-order="0" transform="translate(26, 470)"><g id="tx_almacena_1lxdyy0flh5ou-fill" stroke="none" fill="#f4f4f4"><g><text style="font: 15px Roboto, sans-serif; white-space: pre;" font-size="15px" font-family="Roboto, sans-serif"><tspan x="71.7" y="27.5" dominant-baseline="ideographic">Almacenando </tspan><tspan x="22.44" y="45.5" dominant-baseline="ideographic">resultados en MySQL</tspan></text></g></g></g><g id="g-root-tx_procesod_1hi6xwoflcz5t-fill" data-item-order="0" transform="translate(242, 38)"><g id="tx_procesod_1hi6xwoflcz5t-fill" stroke="none" fill="#f4f4f4"><g><text style="font: bold 25px Roboto, sans-serif; white-space: pre;" font-weight="bold" font-size="25px" font-family="Roboto, sans-serif"><tspan x="12.73" y="42.5" dominant-baseline="ideographic">Proceso de Cálculo de Biomasa</tspan></text></g></g></g><g id="g-root-ic_road_142d73cflsfm2-fill" data-item-order="0" transform="translate(602, 266)"></g><g id="g-root-tf_18kph60fbj01t-stroke" data-item-order="-772632"></g><g id="g-root-sy_1_cu_v5h5igfla617-stroke" data-item-order="-91177" transform="translate(266, 168)"><g id="sy_1_cu_v5h5igfla617-stroke" fill="none" stroke-linecap="round" stroke-linejoin="round" stroke-miterlimit="4" stroke="#1ac3fb" stroke-width="2"><g><path d="M 160.6334 11.282415L 23.2669 79.965615C 15.1361 84.031015 10 92.341315 10 101.431915L 10 277.182615C 10 282.050315 12.7952 285.989415 16.6315 287.915815L 40.6315 299.915815C 36.7952 297.989415 34 294.050315 34 289.182615L 34 113.431915C 34 104.341315 39.1361 96.031015 47.2669 91.965615L 184.6334 23.282415C 188.2443 21.476915 192.1438 21.676815 195.3311 23.263715L 171.3685 11.282415C 168.1743 9.678415 164.2585 9.469815 160.6334 11.282415ZM 195.3685 23.282415L 195.3311 23.263715C 195.3436 23.269915 195.356 23.276115 195.3685 23.282415ZM 184.6334 23.282415L 47.2669 91.965615C 39.1361 96.031015 34 104.341315 34 113.431915L 34 289.182615C 34 294.050315 36.7952 297.989415 40.6315 299.915815C 43.8257 301.519715 47.7415 301.728315 51.3666 299.915815L 69.999 290.599515L 64.6315 287.915815C 60.7952 285.989415 58 282.050315 58 277.182615L 58 131.431915C 58 122.341415 63.1361 114.031015 71.2669 109.965615L 184.6335 53.282415C 188.2585 51.469815 192.1743 51.678415 195.3685 53.282415L 202 56.598115L 202 34.015515C 202 29.147815 199.2048 25.208715 195.3685 23.282415L 195.3311 23.263715C 192.1438 21.676815 188.2443 21.476915 184.6334 23.282415ZM 195.3685 23.282415C 195.356 23.276115 195.3436 23.269915 195.3311 23.263715"></path></g></g></g><g id="g-root-sy_2_cu_qung2wflbjlw-stroke" data-item-order="-91173" transform="translate(314, 210)"><g id="sy_2_cu_qung2wflbjlw-stroke" fill="none" stroke-linecap="round" stroke-linejoin="round" stroke-miterlimit="4" stroke="#43dd93" stroke-width="2"><g><path d="M 136.6335 11.282415L 23.2669 67.965615C 15.1361 72.031015 10 80.341415 10 89.431915L 10 235.182615C 10 240.050315 12.7952 243.989415 16.6315 245.915815L 40.6315 257.915815C 36.7952 255.989415 34 252.050315 34 247.182615L 34 101.431915C 34 92.341415 39.1361 84.031015 47.2669 79.965615L 160.6335 23.282315C 164.2444 21.476915 168.1438 21.676815 171.3311 23.263715L 147.3685 11.282415C 144.1743 9.678415 140.2585 9.469815 136.6335 11.282415ZM 171.3685 23.282315L 171.3311 23.263715C 171.3436 23.269915 171.356 23.276115 171.3685 23.282315ZM 160.6335 23.282315L 47.2669 79.965615C 39.1361 84.031015 34 92.341415 34 101.431915L 34 247.182615C 34 252.050315 36.7952 255.989415 40.6315 257.915815C 43.8257 259.519715 47.7415 259.728315 51.3665 257.915815L 69.999 248.599515L 64.6315 245.915815C 60.7952 243.989415 58 240.050315 58 235.182615L 58 119.431915C 58 110.341415 63.1361 102.031015 71.2669 97.965615L 160.6334 53.282415C 164.2585 51.469815 168.1743 51.678415 171.3685 53.282415L 178 56.598115L 178 34.015515C 178 29.147815 175.2047 25.208715 171.3685 23.282315L 171.3311 23.263715C 168.1438 21.676815 164.2444 21.476915 160.6335 23.282315ZM 171.3685 23.282315C 171.356 23.276115 171.3436 23.269915 171.3311 23.263715"></path></g></g></g><g id="g-root-sy_3_cu_1cy046gflcwlp-stroke" data-item-order="-91169" transform="translate(362, 252)"><g id="sy_3_cu_1cy046gflcwlp-stroke" fill="none" stroke-linecap="round" stroke-linejoin="round" stroke-miterlimit="4" stroke="#a6da37" stroke-width="2"><g><path d="M 112.6334 11.282415L 23.2669 55.965615C 15.1361 60.031115 10 68.341415 10 77.431915L 10 193.182615C 10 198.050315 12.7952 201.989415 16.6315 203.915815L 40.6315 215.915815C 36.7952 213.989415 34 210.050315 34 205.182615L 34 89.431915C 34 80.341415 39.1361 72.031115 47.2669 67.965615L 136.6334 23.282415C 140.2443 21.476915 144.1438 21.676915 147.3311 23.263715L 123.3685 11.282415C 120.1743 9.678415 116.2585 9.469815 112.6334 11.282415ZM 147.3685 23.282415L 147.3311 23.263715C 147.3436 23.269915 147.356 23.276115 147.3685 23.282415ZM 136.6334 23.282315L 47.2669 67.965615C 39.1361 72.031015 34 80.341415 34 89.431915L 34 205.182615C 34 210.050315 36.7952 213.989415 40.6315 215.915815C 43.8257 217.519715 47.7415 217.728315 51.3666 215.915815L 69.9991 206.599515L 64.6315 203.915815C 60.7952 201.989415 58 198.050315 58 193.182615L 58 107.431915C 58 98.341415 63.1361 90.031015 71.2669 85.965615L 136.6334 53.282315C 140.2585 51.469815 144.1743 51.678415 147.3685 53.282315L 154 56.598115L 154 34.015515C 154 29.147815 151.2048 25.208715 147.3685 23.282315L 147.3311 23.263715C 144.1438 21.676815 140.2443 21.476915 136.6334 23.282315ZM 147.3685 23.282315C 147.356 23.276115 147.3436 23.269915 147.3311 23.263715"></path></g></g></g><g id="g-root-sy_4_cu_zof12gflcx6u-stroke" data-item-order="-91165" transform="translate(410, 294)"><g id="sy_4_cu_zof12gflcx6u-stroke" fill="none" stroke-linecap="round" stroke-linejoin="round" stroke-miterlimit="4" stroke="#ffe711" stroke-width="2"><g><path d="M 88.6334 11.282431L 23.2669 43.965631C 15.1361 48.031131 10 56.341431 10 65.431931L 10 151.182631C 10 156.050331 12.7952 159.989431 16.6315 161.915831L 40.6315 173.915831C 36.7952 171.989431 34 168.050331 34 163.182631L 34 77.431931C 34 68.341431 39.1361 60.031131 47.2669 55.965631L 112.6334 23.282431C 116.2443 21.476931 120.1438 21.676931 123.3311 23.263731L 99.3685 11.282431C 96.1743 9.678431 92.2585 9.469831 88.6334 11.282431ZM 123.3685 23.282431L 123.3311 23.263731C 123.3436 23.269931 123.356 23.276131 123.3685 23.282431ZM 112.6334 23.282331L 47.2669 55.965631C 39.1361 60.031031 34 68.341431 34 77.431931L 34 163.182631C 34 168.050331 36.7952 171.989431 40.6315 173.915831C 43.8257 175.519731 47.7415 175.728331 51.3666 173.915831L 69.999 164.599531L 64.6315 161.915831C 60.7952 159.989431 58 156.050431 58 151.182731L 58 95.431931C 58 86.341431 63.1361 78.031031 71.2669 73.965631L 112.6335 53.282331C 116.2585 51.469831 120.1743 51.678431 123.3685 53.282331L 130 56.598131L 130 34.015531C 130 29.147831 127.2048 25.208731 123.3685 23.282331L 123.3311 23.263731C 120.1438 21.676831 116.2443 21.476931 112.6334 23.282331ZM 123.3685 23.282331C 123.356 23.276131 123.3436 23.269931 123.3311 23.263731"></path></g></g></g><g id="g-root-sy_5_cu_1hgxzqgflcwzr-stroke" data-item-order="-91161" transform="translate(458, 336)"><g id="sy_5_cu_1hgxzqgflcwzr-stroke" fill="none" stroke-linecap="round" stroke-linejoin="round" stroke-miterlimit="4" stroke="#f79438" stroke-width="2"><g><path d="M 64.6335 11.282431L 23.2669 31.965631C 15.1361 36.031131 10 44.341431 10 53.431931L 10 109.182731C 10 114.050431 12.7952 117.989431 16.6315 119.915831L 40.6315 131.915831C 36.7952 129.989431 34 126.050431 34 121.182731L 34 65.431931C 34 56.341431 39.1361 48.031131 47.2669 43.965631L 88.6335 23.282431C 92.2443 21.476931 96.1438 21.676831 99.3311 23.263631L 75.3685 11.282431C 72.1743 9.678431 68.2585 9.469831 64.6335 11.282431ZM 99.3685 23.282431L 99.3311 23.263631C 99.3436 23.269931 99.356 23.276131 99.3685 23.282431ZM 88.6335 23.282431L 47.2669 43.965631C 39.1361 48.031131 34 56.341431 34 65.431931L 34 121.182731C 34 126.050431 36.7952 129.989531 40.6315 131.915831C 43.8257 133.519731 47.7415 133.728331 51.3665 131.915831L 69.999 122.599631L 64.6315 119.915831C 60.7952 117.989531 58 114.050431 58 109.182731L 58 83.431931C 58 74.341431 63.1361 66.031131 71.2669 61.965631L 88.6335 53.282431C 92.2585 51.469831 96.1743 51.678431 99.3685 53.282431L 106 56.598131L 106 34.015531C 106 29.147831 103.2048 25.208731 99.3685 23.282431L 99.3311 23.263731C 96.1438 21.676831 92.2443 21.476931 88.6335 23.282431ZM 99.3685 23.282431C 99.356 23.276131 99.3436 23.269931 99.3311 23.263731"></path></g></g></g><g id="g-root-sy_6_cu_8cwfcflcwzs-stroke" data-item-order="-91157" transform="translate(506, 378)"><g id="sy_6_cu_8cwfcflcwzs-stroke" fill="none" stroke-linecap="round" stroke-linejoin="round" stroke-miterlimit="4" stroke="#fb6762" stroke-width="2"><g><path d="M 40.6335 11.282431L 23.2669 19.965631C 15.1361 24.031131 10 32.341431 10 41.431931L 10 67.182731C 10 72.050431 12.7952 75.989431 16.6315 77.915831L 40.6335 89.916831C 36.7962 87.990731 34 84.051231 34 79.182731L 34 53.431931C 34 44.341431 39.1361 36.031131 47.2669 31.965631L 64.6335 23.282431C 68.2444 21.476931 72.1438 21.676931 75.3311 23.263731L 51.3685 11.282431C 48.1743 9.678431 44.2585 9.469831 40.6335 11.282431ZM 75.3685 23.282431L 75.3311 23.263731C 75.3436 23.269931 75.356 23.276131 75.3685 23.282431ZM 34 53.431931C 34 44.341431 39.1361 36.031031 47.2669 31.965631L 64.6335 23.282331C 68.2444 21.476931 72.1438 21.676831 75.3311 23.263731C 75.3436 23.269931 75.356 23.276131 75.3685 23.282331C 79.2048 25.208731 82 29.147831 82 34.015531L 82 59.766331C 82 68.856831 76.8639 77.167131 68.7331 81.232531L 51.3665 89.915831C 47.7422 91.728031 43.8273 91.519831 40.6335 89.916731C 36.7962 87.990731 34 84.051231 34 79.182731L 34 53.431931ZM 75.3685 23.282331L 75.3311 23.263731"></path></g></g></g><g id="g-root-tx_filtrand_zjf8dkfleb62-stroke" data-item-order="0" transform="translate(50, 182)"></g><g id="g-root-tx_seleccio_141qmugflh5hf-stroke" data-item-order="0" transform="translate(662, 182)"></g><g id="g-root-tx_filtrado_hydyqwflij9c-stroke" data-item-order="0" transform="translate(26, 146)"></g><g id="g-root-tx_exportac_m8l73cfljzm2-stroke" data-item-order="0" transform="translate(38, 266)"></g><g id="g-root-ic_down_1lvimugfledxr-stroke" data-item-order="0" transform="translate(194, 266)"><g id="ic_down_1lvimugfledxr-stroke" fill="none" stroke-linecap="round" stroke-linejoin="round" stroke-miterlimit="4" stroke="#a6da37" stroke-width="2"><g><path d="M 32.650002 34.017998C 32.648895 35.513908 31.435911 36.725998 29.940001 36.725998L 13.691999 36.725998C 12.196413 36.725998 10.984 35.513588 10.984 34.017998L 10.984 13.708C 10.984 12.212413 12.196413 11 13.691999 11L 24.306 11C 25.024942 11.001818 25.713608 11.289661 26.220001 11.8L 31.856001 17.434C 32.366642 17.941008 32.654495 18.630409 32.655998 19.35ZM 29.483999 50.130001L 20.484001 50.130001C 19.379431 50.130001 18.484001 49.23457 18.484001 48.130001L 18.484001 42.869999M 32.650002 29.955999L 27.677999 24.276001C 27.337946 23.884293 26.845438 23.658327 26.326721 23.656029C 25.808004 23.653728 25.313511 23.87532 24.970001 24.264L 19.108 30.864L 15.858 28.264C 15.141512 27.689169 14.107126 27.746059 13.458 28.396L 10.984 30.858M 17.734001 18C 18.83857 18 19.734001 18.895432 19.734001 20C 19.734001 21.104568 18.83857 22 17.734001 22C 16.629431 22 15.734 21.104568 15.734 20C 15.734 18.895432 16.629431 18 17.734001 18M 25.484001 54.130001L 29.483999 50.130001L 25.484001 46.130001M 48.015999 39.720001C 52.986 39.720001 57.015999 38.43 57.015999 36.84C 57.015999 35.25 52.986 33.959999 48.015999 33.959999C 43.046001 33.959999 39.015999 35.25 39.015999 36.84C 39.015999 38.43 43.043999 39.720001 48.015999 39.720001ZM 39.015999 45.48L 39.015999 36.84M 57.015999 36.84L 57.015999 45.48M 57.015999 45.48L 57.015999 54.119999C 57.015999 55.720001 52.986 57 48.015999 57C 43.046001 57 39.015999 55.709999 39.015999 54.119999L 39.015999 45.48M 57.015999 42.48C 57.015999 44.080002 52.986 45.360001 48.015999 45.360001C 43.046001 45.360001 39.015999 44.07 39.015999 42.48M 57.015999 48.48C 57.015999 50.080002 52.986 51.360001 48.015999 51.360001C 43.046001 51.360001 39.015999 50.07 39.015999 48.48"></path></g></g></g><g id="g-root-tx_validand_dkfvvsflh4w7-stroke" data-item-order="0" transform="translate(662, 470)"></g><g id="g-root-tx_procesam_1cwr608fljymb-stroke" data-item-order="0" transform="translate(662, 266)"></g><g id="g-root-tx_seleccin_v7e0fljxfl-stroke" data-item-order="0" transform="translate(662, 122)"></g><g id="g-root-tx_exportan_1qa33mwflh4i4-stroke" data-item-order="0" transform="translate(14, 326)"></g><g id="g-root-ic_pict_zmjs4ofla3gj-stroke" data-item-order="0" transform="translate(602, 122)"><g id="ic_pict_zmjs4ofla3gj-stroke" fill="none" stroke-linecap="round" stroke-linejoin="round" stroke-miterlimit="4" stroke="#43dd93" stroke-width="2"><g><path d="M 11.5 19.9L 11.5 13.5C 11.5 12.3 12.3 11.5 13.5 11.5L 19.9 11.5M 48.299999 19.9L 48.299999 13.5C 48.299999 12.3 47.5 11.5 46.299999 11.5L 39.900002 11.5M 11.5 40.900002L 11.5 47.299999C 11.5 48.5 12.3 49.299999 13.5 49.299999L 19.9 49.299999M 54.5 56.5L 38.5 56.5C 37.299999 56.5 36.5 55.700001 36.5 54.5L 36.5 38.5C 36.5 37.299999 37.299999 36.5 38.5 36.5L 54.5 36.5C 55.700001 36.5 56.5 37.299999 56.5 38.5L 56.5 54.5C 56.5 55.5 55.5 56.5 54.5 56.5ZM 10 10M 56.5 52.5L 52.299999 48.299999C 51.5 47.5 49.900002 47.5 49.299999 48.700001L 46.700001 52.700001L 44.299999 50.299999C 43.5 49.5 41.900002 49.5 41.299999 50.5L 37.299999 56.099998M 43.5 42.5L 43.5 42.5M 21.976559 20.474861C 24.3857 23.08474 27.99938 24.690819 31.813801 24.690819C 33.8214 24.690819 35.628201 24.289299 37.234398 23.486259M 29.09996 32.700001C 33.628601 32.700001 37.299999 29.02878 37.299999 24.500061C 37.299999 19.971321 33.628601 16.300039 29.09996 16.300039C 24.57122 16.300039 20.89996 19.971321 20.89996 24.500061C 20.89996 29.02878 24.57122 32.700001 29.09996 32.700001ZM 10 10M 29.69998 36.299999L 29.099979 36.299999C 24.69998 36.299999 20.899979 38.099998 18.099979 40.900002"></path></g></g></g><g id="g-root-tx_procesan_1hgbincflh4b1-stroke" data-item-order="0" transform="translate(662, 326)"></g><g id="g-root-ic_filt_1qdu1bcflilmw-stroke" data-item-order="0" transform="translate(194, 122)"><g id="ic_filt_1qdu1bcflilmw-stroke" fill="none" stroke-linecap="round" stroke-linejoin="round" stroke-miterlimit="4" stroke="#1ac3fb" stroke-width="2"><g><path d="M 30.4 45.925999L 15.16 45.925999C 12.821627 45.925999 10.926001 44.030373 10.926 41.692001L 10.926 15.234C 10.926001 12.895626 12.821627 11 15.16 11L 46.91 11C 49.248375 11 51.144001 12.895626 51.144001 15.234L 51.144001 30.172001M 10.926 19.268L 51.144001 19.268M 10.926 36.834L 28.68 36.834M 10.926 28.063999L 51.144001 28.063999M 27.354 19.268L 27.354 45.925999M 39.129997 19.268L 39.129997 29.625999M 48.062 51L 48.062 46L 56.462002 37.610001C 57.068928 37.002014 57.250309 36.088509 56.9217 35.294769C 56.59309 34.501026 55.819073 33.983055 54.959999 33.982002L 35.164001 33.982002C 34.304924 33.983055 33.53091 34.501026 33.202301 35.294769C 32.873688 36.088509 33.055069 37.002014 33.661999 37.610001L 42.062 46.009998L 42.062 57Z"></path></g></g></g><g id="g-root-tx_almacena_4l2148fljz7w-stroke" data-item-order="0" transform="translate(26, 410)"></g><g id="g-root-ic_refr_metxygfllekm-stroke" data-item-order="0" transform="translate(194, 410)"><g id="ic_refr_metxygfllekm-stroke" fill="none" stroke-linecap="round" stroke-linejoin="round" stroke-miterlimit="4" stroke="#f79438" stroke-width="2"><g><path d="M 11.042 19.001999C 11.042 23.420277 19.54859 27.002001 30.042 27.002001C 40.535408 27.002001 49.042 23.420277 49.042 19.001999C 49.042 14.583722 40.535408 11.002 30.042 11.002C 19.54859 11.002 11.042 14.583722 11.042 19.001999ZM 30.042 35C 19.549999 35 11.042 31.42 11.042 27M 28.042 43.958C 18.49 43.537998 11.042 40.136002 11.042 36M 28.042 52.958C 18.49 52.537998 11.042 49.136002 11.042 45.001999L 11.042 19M 49.042 19.001999L 49.042 29.002001M 48.040001 41.001999L 57.040001 41.001999L 57.040001 32.001999M 56.355999 41C 54.533989 35.843327 49.455761 32.570965 44.007027 33.042435C 38.558289 33.513908 34.117638 37.609924 33.208473 43.002922C 32.299309 48.395924 35.151657 53.721413 40.144676 55.953178C 45.137695 58.184944 51.008087 56.758327 54.420002 52.484001"></path></g></g></g><g id="g-root-ic_api_8wiasoflmt4x-stroke" data-item-order="0" transform="translate(602, 410)"><g id="ic_api_8wiasoflmt4x-stroke" fill="none" stroke-linecap="round" stroke-linejoin="round" stroke-miterlimit="4" stroke="#fb6762" stroke-width="2"><g><path d="M 54.841999 57L 54.841999 45.712002M 52.683998 45.712002L 57 45.712002M 52.683998 57L 57 57M 40.816002 57L 40.816002 52.183998M 40.816002 52.183998L 44.054001 52.183998C 45.841194 52.184002 47.290001 50.735195 47.290001 48.948002C 47.290001 47.160809 45.841194 45.712002 44.054001 45.712002L 40.816002 45.712002ZM 25.712 57L 26.93 48.377998C 27.158144 46.841801 28.476952 45.704388 30.030001 45.704388C 31.58305 45.704388 32.901855 46.841801 33.129997 48.377998L 34.348 57M 26.280001 52.723999L 33.778 52.723999M 48.5 42.841999C 49.419197 40.990475 50.091599 39.026394 50.5 37L 55 37C 56.104568 37 57 36.104568 57 35L 57 33C 57 31.89543 56.104568 31 55 31L 50.506001 31C 50.098236 28.972794 49.425812 27.007969 48.506001 25.156L 51.678001 21.98C 52.458763 21.199001 52.458763 19.932999 51.678001 19.152L 48.848 16.322001C 48.067001 15.541236 46.800999 15.541236 46.02 16.322001L 42.84 19.5C 40.989571 18.579855 39.026024 17.907406 37 17.5L 37 13C 37 11.895431 36.104568 11 35 11L 33 11C 31.89543 11 31 11.895431 31 13L 31 17.496C 28.973339 17.903418 27.009132 18.575863 25.158001 19.496L 21.978001 16.322001C 21.197001 15.541236 19.931 15.541236 19.15 16.322001L 16.32 19.152C 15.539236 19.932999 15.539236 21.199001 16.32 21.98L 19.5 25.158001C 18.580803 27.009523 17.908401 28.973606 17.5 31L 13 31C 11.895431 31 11 31.89543 11 33L 11 35C 11 36.104568 11.895431 37 13 37L 17.492001 37C 17.900402 39.026394 18.572803 40.990475 19.492001 42.841999L 16.312 46.021999C 15.531237 46.803001 15.531237 48.069 16.312 48.849998L 19.142 51.678001C 19.923 52.458763 21.188999 52.458763 21.970001 51.678001M 28.896 41.414001C 25.776087 39.266212 24.334812 35.394894 25.290598 31.729744C 26.246384 28.064594 29.394646 25.390118 33.1661 25.039436C 36.937553 24.688757 40.524944 26.736935 42.140095 30.163031C 43.755241 33.589127 43.052437 37.659813 40.382 40.346001"></path></g></g></g><g id="g-root-tx_validaci_mdkzs8fljz0t-stroke" data-item-order="0" transform="translate(662, 434)"></g><g id="g-root-tx_almacena_1lxdyy0flh5ou-stroke" data-item-order="0" transform="translate(26, 470)"></g><g id="g-root-tx_procesod_1hi6xwoflcz5t-stroke" data-item-order="0" transform="translate(242, 38)"></g><g id="g-root-ic_road_142d73cflsfm2-stroke" data-item-order="0" transform="translate(602, 266)"><g id="ic_road_142d73cflsfm2-stroke" fill="none" stroke-linecap="round" stroke-linejoin="round" stroke-miterlimit="4" stroke="#ffe711" stroke-width="2"><g><path d="M 38.610001 35.610001C 37.597809 36.509056 36.291817 37.006981 34.938 37.009998C 32.097672 36.972958 29.710005 34.867393 29.318001 32.054001L 29.254 31.562C 27.288733 30.675159 26.01874 28.726271 26.001123 26.570244C 25.983509 24.414215 27.221487 22.444836 29.172001 21.526001L 29.25 21.074001C 29.211016 18.792166 31.030138 16.911243 33.312 16.874001L 33.711998 16.455999C 33.659111 14.534267 34.654129 12.73544 36.310143 11.758982C 37.966156 10.782523 40.021843 10.782523 41.677856 11.758982C 43.33387 12.73544 44.328888 14.534267 44.276001 16.456001L 44.675999 16.874001C 46.957867 16.911243 48.776985 18.792166 48.738003 21.074001L 49.223999 21.734001C 51.015457 22.768219 52.079926 24.715786 51.983097 26.782076C 51.886265 28.848364 50.644325 30.687849 48.764 31.549999L 48.669998 32.054001C 48.277199 34.866966 45.890007 36.972115 43.049999 37.010002C 41.711052 37.009075 40.417305 36.52552 39.405998 35.647999ZM 39 24L 39 45M 39 31C 41.858765 31.000643 44.500618 29.475765 45.93 27M 39 29C 35.686295 29 33 26.313709 33 23M 27.016001 35.639999L 26.958 35.950001C 26.717047 37.681305 25.247845 38.977161 23.5 39C 22.676254 38.999115 21.880375 38.701637 21.257999 38.162003L 20.76 38.146C 20.135363 38.695656 19.332043 38.999214 18.5 39C 16.751829 38.978008 15.282156 37.68174 15.042 35.950001L 15.002 35.648003C 13.792212 35.102539 13.010352 33.903038 12.999609 32.576012C 12.988865 31.248981 13.751202 30.036982 14.952 29.472002L 15 29.200001C 14.987696 28.525108 15.244322 27.873032 15.713298 27.387548C 16.182274 26.902063 16.825085 26.623041 17.5 26.612001L 17.75 26.354C 17.721054 24.530266 19.176258 23.028494 21 23C 21.339771 22.999191 21.677444 23.053219 22 23.16M 21 33L 21 45M 11 45L 57 45M 11 57L 57 57M 15 51L 23 51M 29 51L 37 51M 43 51L 51 51"></path></g></g></g></g></g></svg>